<?xml version="1.0" encoding="UTF-8" standalone="no"?>
<!-- Generator: Adobe Illustrator 16.0.3, SVG Export Plug-In . SVG Version: 6.00 Build 0)  -->

<svg
   xmlns:dc="http://purl.org/dc/elements/1.1/"
   xmlns:cc="http://creativecommons.org/ns#"
   xmlns:rdf="http://www.w3.org/1999/02/22-rdf-syntax-ns#"
   xmlns:svg="http://www.w3.org/2000/svg"
   xmlns="http://www.w3.org/2000/svg"
   xmlns:sodipodi="http://sodipodi.sourceforge.net/DTD/sodipodi-0.dtd"
   xmlns:inkscape="http://www.inkscape.org/namespaces/inkscape"
   version="1.1"
   x="0px"
   y="0px"
   width="1024px"
   height="1024px"
   viewBox="0 0 1024 1024"
   enable-background="new 0 0 1024 1024"
   xml:space="preserve"
   id="svg2985"
   inkscape:version="0.48.3.1 r9886"
   sodipodi:docname="logo.svg"><metadata
   id="metadata3174"><rdf:RDF><cc:Work
       rdf:about=""><dc:format>image/svg+xml</dc:format><dc:type
         rdf:resource="http://purl.org/dc/dcmitype/StillImage" /></cc:Work></rdf:RDF></metadata><defs
   id="defs3172" /><sodipodi:namedview
   pagecolor="#ffffff"
   bordercolor="#666666"
   borderopacity="1"
   objecttolerance="10"
   gridtolerance="10"
   guidetolerance="10"
   inkscape:pageopacity="0"
   inkscape:pageshadow="2"
   inkscape:window-width="1543"
   inkscape:window-height="876"
   id="namedview3170"
   showgrid="false"
   inkscape:zoom="0.65186406"
   inkscape:cx="616.07753"
   inkscape:cy="540.11003"
   inkscape:window-x="57"
   inkscape:window-y="24"
   inkscape:window-maximized="1"
   inkscape:current-layer="svg2985" />


<g
   id="g3176"
   transform="translate(10.738435,-4.6021866)"><g
     id="circle">
	<linearGradient
   y2="701.99292"
   x2="256.26871"
   y1="19.040001"
   x1="420.74951"
   gradientUnits="userSpaceOnUse"
   id="SVGID_1_">
		<stop
   id="stop2989"
   style="stop-color:#D0DD28"
   offset="0" />
		<stop
   id="stop2991"
   style="stop-color:#91911F"
   offset="0.9946" />
	</linearGradient>
	<path
   id="path2993"
   d="m 713.181,97.336 -411.4,885.267 C 124.738,909.251 0.197,734.763 0.197,531.198 c 0,-269.757 218.673,-488.43 488.43,-488.43 80.968,0 157.331,19.695 224.554,54.568 z"
   style="fill:url(#SVGID_1_)"
   inkscape:connector-curvature="0" />
	<linearGradient
   y2="533.97272"
   x2="1006.8184"
   y1="533.97272"
   x1="331.54199"
   gradientUnits="userSpaceOnUse"
   id="SVGID_2_">
		<stop
   id="stop2996"
   style="stop-color:#00A651"
   offset="0" />
		<stop
   id="stop2998"
   style="stop-color:#1D7545"
   offset="1" />
	</linearGradient>
	<path
   id="path3000"
   d="m 1006.818,506.689 c 0,269.758 -218.674,488.43 -488.431,488.43 -66.175,0 -129.285,-13.164 -186.846,-37.026 l 411.4,-885.266 c 156.772,81.299 263.877,245.073 263.877,433.862 z"
   style="fill:url(#SVGID_2_)"
   inkscape:connector-curvature="0" />
</g><g
     id="girl">
	<g
   id="g3003">
		<g
   id="g3005">
			<path
   id="path3007"
   d="m 817.245,678.502 c 10e-4,1.859 0.141,4.163 2.502,4.253 0.968,0.037 0.964,-1.464 0,-1.5 -1.239,-0.047 -1.002,-1.891 -1.002,-2.753 0,-0.967 -1.5,-0.968 -1.5,0 l 0,0 z"
   inkscape:connector-curvature="0"
   style="fill:#ffffff" />
		</g>
	</g>
	<g
   id="g3009">
		<path
   id="path3011"
   d="m 777.731,734.523 c -5.208,19.523 28.053,76.198 43.765,96.284 -12.307,-22.419 -34.849,-81.018 -19.257,-115.543 0.412,-0.916 0.584,-2.218 0.53,-3.86 1.787,-1.22 8.148,-5.643 16.815,-12.552 -7.604,3.26 -35.813,13.017 -41.853,35.671 z"
   inkscape:connector-curvature="0"
   style="fill:#ffffff" />
		<path
   id="path3013"
   d="m 968.55,417.656 c -28.011,-78.78 -129.548,-35.013 -134.799,-10.504 -10.504,-22.758 -222.332,-75.278 -259.095,92.784 -0.434,1.968 -0.356,4.19 0.139,6.616 -14.863,19.634 -42.579,67.201 -29.9,136.938 3.502,19.255 -31.512,19.255 -31.512,19.255 0,0 21.275,29.852 26.26,31.513 5.252,1.751 -1.751,19.258 19.258,28.011 0,10.503 15.756,29.76 15.756,29.76 0,0 10.504,14.006 21.008,21.009 5.332,3.556 36.762,5.251 57.77,-12.254 9.342,18.665 21.008,66.524 -21.008,127.797 -1.786,2.604 -3.148,4.934 -4.129,7.014 78.135,-45.447 39.031,-129.929 30.389,-147.065 -23.641,8.09 -38.513,21.008 -55.645,20.232 -12.104,-0.547 -20.211,-20.058 -20.211,-20.058 0,0 -15.156,-18.386 -15.156,-28.415 -20.208,-8.356 -10.104,-25.07 -15.157,-26.741 -4.794,-1.587 -28.63,-30.085 -28.63,-30.085 0,0 33.683,0 30.314,-18.388 -12.197,-66.58 28.912,-121.141 43.212,-139.886 -0.475,-2.314 -14.992,4.708 -14.583,2.826 33.841,-155.132 249.084,-118.39 259.674,-67.601 10.504,-77.027 84.588,-82.936 119.263,-10.958 34.795,72.231 -54.4,104.226 -96.504,77.483 43.511,72.485 -18.649,165.03 -40.998,188.122 36.42,-30.023 101.788,-95.707 65.507,-156.611 43.765,28.012 103.34,-51.712 78.777,-120.794 z"
   inkscape:connector-curvature="0"
   style="fill:#ffffff" />
		<path
   id="path3015"
   d="M 826.748,830.808"
   inkscape:connector-curvature="0"
   style="fill:#ffffff" />
		<path
   id="path3017"
   d="M 628.297,895.594"
   inkscape:connector-curvature="0"
   style="fill:#ffffff" />
		<path
   id="path3019"
   d="m 821.496,697.759 c 0.832,-0.749 1.761,-1.658 2.769,-2.698 -1.622,1.338 -3.182,2.6 -4.68,3.792 1.211,-0.521 1.918,-0.877 1.911,-1.094 z"
   inkscape:connector-curvature="0"
   style="fill:#ffffff" />
	</g>
	<path
   id="path3021"
   d="m 610.883,504.13 c 17.567,7.077 48.152,5.417 98.571,-49.71 -45.54,91.316 -98.921,51.768 -98.571,49.71 z"
   inkscape:connector-curvature="0"
   style="fill:#ffffff" />
	<path
   id="path3023"
   d="m 656.949,515.121 c 15.421,10.989 74.624,-1.389 136.537,-43.196 -65.632,78.135 -137.36,45.114 -136.537,43.196 z"
   inkscape:connector-curvature="0"
   style="fill:#ffffff" />
	<path
   id="path3025"
   d="m 707.746,540.202 c 12.128,14.545 66.011,3.716 136.51,-21.009 -83.316,58.917 -137.794,22.655 -136.51,21.009 z"
   inkscape:connector-curvature="0"
   style="fill:#ffffff" />
	<path
   id="path3027"
   d="m 747.901,580.467 c 12.128,14.545 39.86,27.549 110.359,2.823 -83.315,58.917 -111.642,-1.175 -110.359,-2.823 z"
   inkscape:connector-curvature="0"
   style="fill:#ffffff" />
	<path
   id="path3029"
   d="m 779.515,622.264 c 9.318,14.428 32.338,8.07 87.498,-17.287 -65.461,59.653 -88.512,18.946 -87.498,17.287 z"
   inkscape:connector-curvature="0"
   style="fill:#ffffff" />
	<path
   id="path3031"
   d="m 794.584,658.893 c -7.398,-22.802 22.811,33.458 83.311,27.209 -79.655,33.838 -85.749,-50.011 -83.311,-27.209 z"
   inkscape:connector-curvature="0"
   style="fill:#ffffff" />
	<path
   id="path3033"
   d="m 952.794,436.913 c 0,0 -47.267,87.532 -91.032,40.265 -1.416,0.808 7.543,6.473 6.069,7.28 21.567,18.512 50.281,8.797 70.959,-3.779 22.884,-19.037 14.004,-43.766 14.004,-43.766 z"
   inkscape:connector-curvature="0"
   style="fill:#ffffff" />
	<g
   id="g3035">
		<path
   id="path3037"
   d="m 653.434,643.49 c 7.003,-3.502 -8.753,8.753 -12.254,12.254"
   inkscape:connector-curvature="0"
   style="fill:#ffffff" />
		<g
   id="g3039">
			<path
   id="path3041"
   d="m 653.813,644.138 c 0.297,-0.146 0.593,-0.29 0.901,-0.412 0.849,-0.336 -0.435,0.365 -0.241,-0.875 -0.049,0.314 -0.715,0.81 -0.926,1.021 -1.34,1.346 -2.806,2.573 -4.243,3.812 -2.89,2.489 -5.935,4.852 -8.654,7.53 -0.69,0.68 0.371,1.739 1.061,1.061 3.664,-3.608 7.83,-6.701 11.64,-10.154 0.75,-0.68 2.607,-1.96 2.607,-3.143 0,-1.62 -2.278,-0.44 -2.902,-0.135 -0.869,0.425 -0.109,1.719 0.757,1.295 l 0,0 z"
   inkscape:connector-curvature="0"
   style="fill:#ffffff" />
		</g>
	</g>
	<g
   id="g3043">
		<path
   id="path3045"
   d="m 651.685,643.49 c -5.253,-10.505 -31.512,-26.262 -49.021,-26.262 21.01,-1.749 38.516,10.504 52.521,26.262 -17.507,-10.505 -35.013,-26.262 -56.02,-24.509 17.505,-3.502 59.52,17.506 47.266,31.511"
   inkscape:connector-curvature="0"
   style="fill:#ffffff" />
		<g
   id="g3047">
			<path
   id="path3049"
   d="m 652.332,643.111 c -4.168,-7.757 -12.766,-13.124 -20.184,-17.339 -8.89,-5.052 -19.153,-9.096 -29.484,-9.294 0,0.5 0,1 0,1.5 21.164,-1.417 38.446,10.984 51.991,26.042 0.303,-0.393 0.605,-0.785 0.909,-1.178 -17.453,-10.599 -34.648,-25.983 -56.398,-24.611 0.066,0.491 0.133,0.982 0.199,1.474 10.637,-1.884 22.586,2.91 31.805,7.762 6.687,3.519 22.217,13.312 14.731,22.495 -0.605,0.743 0.449,1.811 1.061,1.061 7.073,-8.677 -3.491,-17.567 -10.326,-22.08 -10.275,-6.784 -25.129,-12.904 -37.669,-10.685 -0.835,0.148 -0.64,1.526 0.199,1.474 21.445,-1.354 38.434,13.957 55.641,24.406 0.754,0.458 1.465,-0.561 0.909,-1.178 -13.796,-15.338 -31.521,-27.924 -53.052,-26.481 -0.957,0.064 -0.975,1.481 0,1.5 10.157,0.194 19.943,4.273 28.728,9.089 7.229,3.963 15.628,9.325 19.646,16.802 0.457,0.851 1.752,0.094 1.294,-0.759 l 0,0 z"
   inkscape:connector-curvature="0"
   style="fill:#ffffff" />
		</g>
	</g>
	<g
   id="g3051">
		<path
   id="path3053"
   d="m 623.674,620.73 c 7.003,3.502 17.506,1.751 24.508,-1.749"
   inkscape:connector-curvature="0"
   style="fill:#ffffff" />
		<g
   id="g3055">
			<path
   id="path3057"
   d="m 623.295,621.378 c 8.117,3.604 17.469,1.926 25.266,-1.749 0.874,-0.412 0.112,-1.705 -0.758,-1.295 -7.257,3.42 -16.171,5.114 -23.75,1.749 -0.876,-0.389 -1.64,0.903 -0.758,1.295 l 0,0 z"
   inkscape:connector-curvature="0"
   style="fill:#ffffff" />
		</g>
	</g>
	<g
   id="g3059">
		<path
   id="path3061"
   d="m 635.928,631.235 c 7.003,3.501 17.506,3.501 26.26,-1.75"
   inkscape:connector-curvature="0"
   style="fill:#ffffff" />
		<g
   id="g3063">
			<path
   id="path3065"
   d="m 635.549,631.883 c 8.817,4.052 18.679,2.927 27.018,-1.75 0.843,-0.473 0.087,-1.769 -0.758,-1.295 -7.834,4.394 -17.192,5.568 -25.502,1.75 -0.873,-0.401 -1.636,0.891 -0.758,1.295 l 0,0 z"
   inkscape:connector-curvature="0"
   style="fill:#ffffff" />
		</g>
	</g>
	<g
   id="g3067">
		<path
   id="path3069"
   d="m 649.933,639.988 c 5.253,3.502 10.504,3.502 17.507,1.75"
   inkscape:connector-curvature="0"
   style="fill:#ffffff" />
		<g
   id="g3071">
			<path
   id="path3073"
   d="m 649.554,640.636 c 5.724,3.592 11.71,3.347 18.085,1.826 0.94,-0.225 0.542,-1.671 -0.398,-1.447 -6.003,1.433 -11.537,1.71 -16.929,-1.674 -0.823,-0.516 -1.575,0.782 -0.758,1.295 l 0,0 z"
   inkscape:connector-curvature="0"
   style="fill:#ffffff" />
		</g>
	</g>
	<g
   id="g3075">
		<path
   id="path3077"
   d="m 615.176,635.889 c -0.499,-0.361 -0.997,-0.618 -1.494,-0.76 0.083,0.249 0.151,0.505 0.222,0.76 0.422,-0.075 0.846,-0.064 1.272,0 z"
   stroke-miterlimit="10"
   inkscape:connector-curvature="0"
   style="fill:#ffffff;stroke:#ffffff;stroke-miterlimit:10" />
		<path
   id="path3079"
   d="m 619.362,665.466 c -4.063,0.753 -8.584,-5.258 -10.098,-13.425 -0.013,-0.068 -0.021,-0.137 -0.032,-0.205 -0.566,0.397 -1.165,0.742 -1.799,1.012 0.122,1.625 0.308,3.3 0.583,5.021 1.912,11.931 6.946,21.048 11.243,20.357 3.849,-0.616 5.789,-8.896 4.78,-19.192 -0.74,3.534 -2.391,6.007 -4.677,6.432 z"
   stroke-miterlimit="10"
   inkscape:connector-curvature="0"
   style="fill:#ffffff;stroke:#ffffff;stroke-miterlimit:10" />
	</g>
	<path
   id="path3081"
   d="m 588.661,590.97 c 0,0 1.548,6.958 8.752,7.003 15.244,0.095 45.518,-5.252 50.769,-1.75 11.377,7.583 -24.508,-14.006 -59.521,-5.253 z"
   stroke-miterlimit="10"
   inkscape:connector-curvature="0"
   style="fill:#ffffff;stroke:#ffffff;stroke-miterlimit:10" />
	<g
   id="g3083">
		<path
   id="path3085"
   d="m 747.968,620.73 c -11.692,-25.057 -35.552,-5.607 -41.3,6.989 9.146,-9.838 30.072,-22.032 41.167,-0.295 1.937,3.792 2.452,7.62 1.937,11.401 1.316,-5.912 1.02,-12.048 -1.804,-18.095 z"
   inkscape:connector-curvature="0"
   style="fill:#ffffff" />
		<path
   id="path3087"
   d="m 711.586,678.139 c 0.944,0.572 1.98,0.743 3.121,0.363 6.569,-2.188 22.725,-13.968 30.909,-28.906 -7.365,11.838 -22.583,22.318 -34.03,28.543 z"
   inkscape:connector-curvature="0"
   style="fill:#ffffff" />
		<path
   id="path3089"
   d="m 749.771,638.826 c -0.822,3.705 -2.267,7.323 -4.155,10.77 2.176,-3.497 3.659,-7.112 4.155,-10.77 z"
   inkscape:connector-curvature="0"
   style="fill:#ffffff" />
	</g>
	<g
   id="g3091">
		<g
   id="g3093">
			<path
   id="path3095"
   d="m 568.052,725.465 c 6.685,-1.068 13.347,-1.728 19.8,-3.905 7.783,-2.628 14.253,-7.644 19.376,-13.987 1.204,-1.49 -0.905,-3.627 -2.121,-2.121 -5.458,6.758 -12.139,11.426 -20.446,13.988 -5.653,1.744 -11.592,2.203 -17.405,3.133 -1.907,0.304 -1.096,3.195 0.796,2.892 l 0,0 z"
   inkscape:connector-curvature="0"
   style="fill:#ffffff" />
		</g>
	</g>
</g><g
     id="boy">
	<g
   id="g3098">
		<path
   id="path3100"
   d="M 236.289,180.812 C 511.141,103.784 509.411,384.988 512.136,396.158 558.479,236.449 416.824,150.68 264.3,186.064 125.076,218.362 125.999,305.109 96.238,376.885 129.5,261.342 133.752,209.548 236.289,180.812 z"
   inkscape:connector-curvature="0"
   style="fill:#ffffff" />
		<path
   id="path3102"
   d="M 382.801,696.528"
   inkscape:connector-curvature="0"
   style="fill:#ffffff" />
		<path
   id="path3104"
   d="m 399.1,707.756 c 7.92,-22.721 -78.121,-88.926 -78.121,-113.941 0,-20.854 36.213,-39.02 48.266,-44.491 19.329,6.496 39,8.517 56.002,6.008 21.355,-3.153 17.749,-28.786 21.239,-46.18 3.862,-19.244 21.241,-17.319 23.17,-38.483 5.793,-28.865 36.687,-9.622 42.479,-46.183 -52.132,-17.317 -38.23,-35.104 -34.755,-63.499 0.862,-7.038 1.356,-13.835 1.566,-20.4 0.575,-2.407 1.036,-4.729 1.408,-6.975 -6.102,-14.091 -12.404,-25.398 -17.903,-34.019 3.553,9.684 5.141,23.073 0.868,40.994 -0.209,6.565 -0.705,13.362 -1.566,20.4 -3.475,28.395 -17.378,46.182 34.757,63.499 -5.792,36.561 -36.688,17.317 -42.481,46.183 -1.93,21.164 -19.308,19.239 -23.17,38.483 -3.491,17.394 12.354,32.641 -9,35.796 -17.003,2.509 -38.443,-12.763 -57.772,-19.258 -12.054,5.471 -58.735,47.271 -58.735,68.125 0,23.638 84.53,92.061 95.499,117.443"
   inkscape:connector-curvature="0"
   style="fill:#ffffff" />
		<path
   id="path3106"
   d="m 176.768,478.422 c 0,0 -6.886,78.43 -41.935,98.508 -0.547,1.537 -1.1,3.076 -1.691,4.646 28.42,0 43.223,-26.515 50.723,-49.527 4.966,-29.352 -7.097,-53.627 -7.097,-53.627 z"
   inkscape:connector-curvature="0"
   style="fill:#ffffff" />
		<path
   id="path3108"
   d="m 124.028,572.649 c 0.007,-0.052 0.015,-0.1 0.021,-0.149 -0.057,0.019 -0.111,0.043 -0.169,0.063 0.05,0.026 0.099,0.062 0.148,0.086 z"
   inkscape:connector-curvature="0"
   style="fill:#ffffff" />
		<path
   id="path3110"
   d="m 135.722,498.264 c 3.904,-43.045 -4.471,-79.363 -4.471,-79.363 0,59.521 -10.504,80.529 -15.756,112.041 -10.553,-5.092 -21.008,-61.271 -22.758,-113.792 0,-12.255 -4.038,10.907 -7.869,17.233 1.034,40.258 20.656,106.826 33.03,130.13 5.523,-10.89 9.547,-22.315 12.423,-33.776 2.157,-13.659 3.971,-24.383 5.401,-32.473 z"
   inkscape:connector-curvature="0"
   style="fill:#ffffff" />
		<path
   id="path3112"
   d="m 194.274,611.472 c 14.696,-18.153 49.018,-66.524 15.756,-124.298 15.756,49.02 -44.781,86.436 -51.246,93.173 11.753,-1.804 31.129,-14.998 48.411,-34.252 -0.047,0.513 -0.085,1.034 -0.138,1.54 -3.796,35.928 -110.537,145.734 -114.216,149.511 17.066,-7.878 56.787,-30.525 101.433,-85.674 z"
   inkscape:connector-curvature="0"
   style="fill:#ffffff" />
		<path
   id="path3114"
   d="m 82.913,437.493 c 0.683,-1.048 1.333,-2.083 1.955,-3.11 -0.03,-1.145 -0.05,-2.275 -0.048,-3.377 -0.571,2.117 -1.205,4.287 -1.907,6.487 z"
   inkscape:connector-curvature="0"
   style="fill:#ffffff" />
		<path
   id="path3116"
   d="m 41.926,466.787 c 9.949,-3.652 26.27,-12.929 35.054,-18.125 24.51,-42.016 17.262,-51.961 28.011,-98.037 -20.122,52.27 -29.03,87.091 -63.065,116.162 z"
   inkscape:connector-curvature="0"
   style="fill:#ffffff" />
		<path
   id="path3118"
   d="M 123.88,572.563"
   inkscape:connector-curvature="0"
   style="fill:#ffffff" />
	</g>
	<path
   id="path3120"
   d="m 428.574,208.823 c 1.299,3.16 2.531,6.34 3.619,9.548 2.015,5.936 42.972,57.951 29.644,134.005 3.307,9.293 7.023,16.104 9.758,27.271 20.757,-71.752 -0.517,-130.341 -43.021,-170.824 z"
   inkscape:connector-curvature="0"
   style="fill:#ffffff" />
	<path
   id="path3122"
   d="m 377.814,249.619 c 1.635,-24.4 0.606,-36.901 -2.885,-39.179 -5.5,98.811 -45.855,152.439 -192.91,197.956 124.139,6.052 197.725,-67.559 195.795,-158.777 z"
   inkscape:connector-curvature="0"
   style="fill:#ffffff" />
	<path
   id="path3124"
   d="m 387.075,212.325 c 17.276,26.259 27.781,70.746 -28.24,139.446 108.724,-58.377 30.974,-139.775 28.24,-139.446 z"
   inkscape:connector-curvature="0"
   style="fill:#ffffff" />
	<path
   id="path3126"
   d="m 416.696,219.5 c 13.305,13.475 23.57,42.337 -7.846,110.117 66.687,-77.237 9.609,-111.234 7.846,-110.117 z"
   inkscape:connector-curvature="0"
   style="fill:#ffffff" />
	<path
   id="path3128"
   d="m 227.536,459.165 c 17.507,21.008 22.758,38.514 -1.75,112.042 75.277,-103.29 4.584,-113.762 1.75,-112.042 z"
   inkscape:connector-curvature="0"
   style="fill:#ffffff" />
	<g
   id="g3130">
		<g
   id="g3132">
			<path
   id="path3134"
   d="m 417.623,387.329 c -10.469,-27.471 -50.111,6.866 -68.36,3.922 -0.946,-0.153 -1.352,1.292 -0.398,1.446 20.9,3.373 45.53,-25.604 64.14,-8.32 0.303,-0.393 0.606,-0.785 0.909,-1.178 -10.09,-5.366 -20.306,-5.727 -31.154,-2.583 -12.421,3.6 -23.693,10.052 -36.821,11.032 -0.779,0.058 -0.979,0.951 -0.378,1.397 3.819,2.843 7.812,5.441 11.63,8.286 0.701,0.523 1.486,-0.588 0.909,-1.178 -2.273,-2.323 -4.317,-4.728 -7.066,-6.498 -0.61,-0.393 -1.471,0.409 -1.026,1.026 2.343,3.25 5.018,6.239 7.34,9.507 0.551,0.776 1.83,0.064 1.295,-0.757 -2.187,-3.36 -3.99,-6.941 -6.176,-10.302 -0.432,0.252 -0.863,0.504 -1.295,0.757 2.12,3.108 4.24,6.216 6.36,9.323 0.539,0.79 1.79,0.087 1.295,-0.757 -1.538,-2.625 -2.049,-5.56 -2.585,-8.508 -0.056,-0.306 -0.416,-0.575 -0.724,-0.55 -0.006,0 -0.012,10e-4 -0.019,10e-4 -0.395,0.031 -0.767,0.318 -0.75,0.75 0.012,0.361 0.03,0.722 0.056,1.082 0.055,0.961 1.555,0.967 1.5,0 -0.07,-1.221 -1.557,-1.187 -1.364,-0.041 0.152,0.901 0.342,1.793 0.541,2.685 0.42,1.89 1.073,3.67 2.05,5.337 0.432,-0.252 0.863,-0.504 1.295,-0.757 -2.12,-3.108 -4.24,-6.216 -6.36,-9.323 -0.54,-0.791 -1.827,-0.06 -1.295,0.757 2.186,3.361 3.989,6.942 6.176,10.302 0.432,-0.252 0.863,-0.504 1.295,-0.757 -2.322,-3.269 -4.997,-6.257 -7.34,-9.507 -0.342,0.342 -0.684,0.684 -1.026,1.026 2.653,1.708 4.58,4.034 6.762,6.264 0.303,-0.393 0.606,-0.785 0.909,-1.178 -3.818,-2.845 -7.811,-5.443 -11.63,-8.286 -0.126,0.466 -0.252,0.932 -0.378,1.397 10.82,-0.808 20.621,-5.061 30.653,-8.844 12.421,-4.684 24.413,-6.273 36.565,0.189 0.733,0.39 1.553,-0.579 0.909,-1.178 -19.529,-18.139 -43.462,11.378 -64.802,7.934 -0.133,0.482 -0.266,0.964 -0.398,1.446 11.146,1.798 23.153,-5.044 33.18,-8.959 11.011,-4.299 28.423,-10.99 34.132,3.989 0.338,0.899 1.789,0.511 1.444,-0.394 l 0,0 z"
   inkscape:connector-curvature="0"
   style="fill:#ffffff" />
		</g>
	</g>
	<path
   id="path3136"
   d="m 410.128,352.174 c 0,0 -41.304,-1.494 -59.147,8.518 -11.417,6.401 41.614,-24.156 71.519,-14.809 -0.678,5.734 -12.372,6.291 -12.372,6.291 z"
   stroke-miterlimit="10"
   inkscape:connector-curvature="0"
   style="fill:#ffffff;stroke:#ffffff;stroke-miterlimit:10" />
	<path
   id="path3138"
   d="m 401.525,421.219 c -4.509,-1.748 -5.329,-10.473 -1.832,-19.488 2.616,-6.744 6.905,-11.74 10.788,-13.096 -0.988,-1.266 -2.154,-2.107 -3.499,-2.373 -6.049,-1.189 -13.199,9.248 -15.969,23.311 -2.769,14.065 -0.11,26.435 5.94,27.624 5.994,1.18 13.063,-9.062 15.887,-22.933 -3.5,5.313 -7.957,8.256 -11.315,6.955 z"
   inkscape:connector-curvature="0"
   style="fill:#ffffff" />
	<path
   id="path3140"
   d="m 329.074,408.129 c 0,0 -38.515,-27.742 -47.268,15.375 8.752,37.411 32.723,44.416 32.723,44.416 0,0 -57.233,-77.029 14.545,-59.791 z"
   inkscape:connector-curvature="0"
   style="fill:#ffffff" />
	<g
   id="g3142">
		<g
   id="g3144">
			<path
   id="path3146"
   d="m 448.118,492.678 c -6.699,-0.201 -13.485,-3.467 -19.375,-6.36 -7.249,-3.561 -14.496,-8.064 -19.829,-14.208 -1.27,-1.464 -3.383,0.667 -2.121,2.121 5.527,6.368 12.994,10.891 20.435,14.678 6.324,3.218 13.679,6.553 20.889,6.77 1.936,0.057 1.931,-2.943 10e-4,-3.001 l 0,0 z"
   inkscape:connector-curvature="0"
   style="fill:#ffffff" />
		</g>
	</g>
	<path
   id="path3148"
   d="m 226.756,287.001 c -3.095,31.282 -22.923,72.466 -109.691,90.611 121.235,23.04 112.023,-89.145 109.691,-90.611 z"
   inkscape:connector-curvature="0"
   style="fill:#ffffff" />
</g></g>

<g
   id="text"
   display="none">
	<rect
   x="102.559"
   y="694.511"
   display="inline"
   fill="none"
   width="347.595"
   height="150.704"
   id="rect3166" />
	
		<text
   transform="matrix(1 0 0 1 102.5586 763.3799)"
   display="inline"
   fill="#FFFFFF"
   stroke="#FFFFFF"
   stroke-width="3"
   stroke-miterlimit="10"
   font-family="'MyriadPro-Regular'"
   font-size="97"
   id="text3168">Seyona</text>



</g>
</svg>